<svg width="30" height="30" viewBox="0 0 30 30" fill="none" xmlns="http://www.w3.org/2000/svg">
<rect width="30" height="30" rx="15" fill="#333333"/>
<path d="M7.056 20C6.65067 20 6.27733 19.8987 5.936 19.696C5.60533 19.4933 5.33867 19.2267 5.136 18.896C4.944 18.5653 4.848 18.1973 4.848 17.792V10.72H6.944V17.712C6.944 17.7653 6.96 17.8133 6.992 17.856C7.03467 17.888 7.08267 17.904 7.136 17.904H11.984C12.0373 17.904 12.08 17.888 12.112 17.856C12.1547 17.8133 12.176 17.7653 12.176 17.712V10.72H14.272V17.792C14.272 18.1973 14.1707 18.5653 13.968 18.896C13.776 19.2267 13.5147 19.4933 13.184 19.696C12.8533 19.8987 12.48 20 12.064 20H7.056ZM17.7729 20C17.3675 20 16.9995 19.8987 16.6689 19.696C16.3382 19.4933 16.0715 19.2267 15.8689 18.896C15.6662 18.5653 15.5649 18.1973 15.5649 17.792V17.44H17.6609V17.712C17.6609 17.7653 17.6769 17.8133 17.7089 17.856C17.7515 17.888 17.7995 17.904 17.8529 17.904H22.7009C22.7542 17.904 22.7969 17.888 22.8289 17.856C22.8715 17.8133 22.8929 17.7653 22.8929 17.712V16.608C22.8929 16.5547 22.8715 16.512 22.8289 16.48C22.7969 16.4373 22.7542 16.416 22.7009 16.416H17.7729C17.3675 16.416 16.9995 16.3147 16.6689 16.112C16.3382 15.9093 16.0715 15.6427 15.8689 15.312C15.6662 14.9813 15.5649 14.6133 15.5649 14.208V12.928C15.5649 12.5227 15.6662 12.1547 15.8689 11.824C16.0715 11.4933 16.3382 11.2267 16.6689 11.024C16.9995 10.8213 17.3675 10.72 17.7729 10.72H22.7809C23.1969 10.72 23.5702 10.8213 23.9009 11.024C24.2315 11.2267 24.4982 11.4933 24.7009 11.824C24.9035 12.1547 25.0049 12.5227 25.0049 12.928V13.28H22.8929V13.008C22.8929 12.9547 22.8715 12.912 22.8289 12.88C22.7969 12.8373 22.7542 12.816 22.7009 12.816H17.8529C17.7995 12.816 17.7515 12.8373 17.7089 12.88C17.6769 12.912 17.6609 12.9547 17.6609 13.008V14.112C17.6609 14.1653 17.6769 14.2133 17.7089 14.256C17.7515 14.288 17.7995 14.304 17.8529 14.304H22.7809C23.1969 14.304 23.5702 14.4053 23.9009 14.608C24.2315 14.8107 24.4982 15.0773 24.7009 15.408C24.9035 15.7387 25.0049 16.1067 25.0049 16.512V17.792C25.0049 18.1973 24.9035 18.5653 24.7009 18.896C24.4982 19.2267 24.2315 19.4933 23.9009 19.696C23.5702 19.8987 23.1969 20 22.7809 20H17.7729Z" fill="white"/>
</svg>
