<svg width="26" height="26" viewBox="0 0 26 26" fill="none" xmlns="http://www.w3.org/2000/svg">
<path d="M7.06627 21.1175L7.97127 21.6463C9.49744 22.5363 11.2333 23.0036 13 23C14.9778 23 16.9112 22.4135 18.5557 21.3147C20.2002 20.2159 21.4819 18.6541 22.2388 16.8268C22.9957 14.9996 23.1937 12.9889 22.8079 11.0491C22.422 9.10929 21.4696 7.32746 20.0711 5.92893C18.6726 4.53041 16.8907 3.578 14.9509 3.19215C13.0111 2.8063 11.0004 3.00433 9.17318 3.76121C7.34592 4.51808 5.78413 5.79981 4.68532 7.4443C3.58651 9.08879 3.00002 11.0222 3.00002 13C3.00002 14.795 3.47127 16.5163 4.35502 18.03L4.88252 18.935L4.06627 21.9363L7.06627 21.1175ZM0.505017 25.5L2.19502 19.29C1.08144 17.3811 0.496387 15.21 0.500017 13C0.500017 6.09625 6.09627 0.5 13 0.5C19.9038 0.5 25.5 6.09625 25.5 13C25.5 19.9038 19.9038 25.5 13 25.5C10.791 25.5036 8.62084 24.919 6.71252 23.8063L0.505017 25.5ZM8.48877 7.135C8.65627 7.1225 8.82502 7.1225 8.99252 7.13C9.06002 7.135 9.12752 7.1425 9.19502 7.15C9.39377 7.1725 9.61252 7.29375 9.68627 7.46125C10.0588 8.30625 10.4213 9.1575 10.7713 10.0113C10.8488 10.2013 10.8025 10.445 10.655 10.6825C10.5536 10.8431 10.4438 10.9983 10.3263 11.1475C10.185 11.3288 9.88127 11.6613 9.88127 11.6613C9.88127 11.6613 9.75752 11.8088 9.80502 11.9925C9.82252 12.0625 9.88002 12.1638 9.93252 12.2488L10.0063 12.3675C10.3263 12.9013 10.7563 13.4425 11.2813 13.9525C11.4313 14.0975 11.5775 14.2463 11.735 14.385C12.32 14.9013 12.9825 15.3225 13.6975 15.635L13.7038 15.6375C13.81 15.6838 13.8638 15.7088 14.0188 15.775C14.0963 15.8075 14.1763 15.8363 14.2575 15.8575C14.3415 15.8789 14.4299 15.8749 14.5116 15.8459C14.5932 15.817 14.6645 15.7645 14.7163 15.695C15.6213 14.5988 15.7038 14.5275 15.7113 14.5275V14.53C15.7741 14.4714 15.8488 14.4269 15.9303 14.3995C16.0118 14.3721 16.0982 14.3625 16.1838 14.3713C16.2588 14.3763 16.335 14.39 16.405 14.4213C17.0688 14.725 18.155 15.1988 18.155 15.1988L18.8825 15.525C19.005 15.5838 19.1163 15.7225 19.12 15.8563C19.125 15.94 19.1325 16.075 19.1038 16.3225C19.0638 16.6463 18.9663 17.035 18.8688 17.2388C18.802 17.3778 18.7134 17.5052 18.6063 17.6163C18.4801 17.7487 18.342 17.8692 18.1938 17.9763C18.1425 18.0148 18.0904 18.0523 18.0375 18.0888C17.882 18.1874 17.7223 18.2791 17.5588 18.3638C17.2369 18.5347 16.8815 18.6328 16.5175 18.6513C16.2863 18.6638 16.055 18.6813 15.8225 18.6688C15.8125 18.6688 15.1125 18.56 15.1125 18.56C13.3353 18.0926 11.6918 17.2168 10.3125 16.0025C10.03 15.7538 9.76877 15.4863 9.50127 15.22C8.38877 14.1138 7.54877 12.92 7.03877 11.7925C6.77773 11.2391 6.63672 10.6368 6.62502 10.025C6.61986 9.26607 6.86795 8.52708 7.33002 7.925C7.42127 7.8075 7.50752 7.685 7.65627 7.54375C7.81502 7.39375 7.91502 7.31375 8.02377 7.25875C8.16836 7.18629 8.32609 7.14377 8.48752 7.13375L8.48877 7.135Z" fill="white"/>
</svg>
