<svg width="31" height="35" viewBox="0 0 31 35" fill="none" xmlns="http://www.w3.org/2000/svg">
<g clip-path="url(#clip0_1513_1332)" filter="url(#filter0_d_1513_1332)">
<path d="M15 11.9375C16.1462 10.7663 17.6388 10 19.375 10C21.1984 10 22.947 10.7243 24.2364 12.0136C25.5257 13.303 26.25 15.0516 26.25 16.875V26.25H23.75V16.875C23.75 15.7147 23.2891 14.6019 22.4686 13.7814C21.6481 12.9609 20.5353 12.5 19.375 12.5C18.2147 12.5 17.1019 12.9609 16.2814 13.7814C15.4609 14.6019 15 15.7147 15 16.875V26.25H12.5V10.625H15V11.9375ZM6.25 8.125C5.75272 8.125 5.27581 7.92746 4.92417 7.57583C4.57254 7.22419 4.375 6.74728 4.375 6.25C4.375 5.75272 4.57254 5.27581 4.92417 4.92417C5.27581 4.57254 5.75272 4.375 6.25 4.375C6.74728 4.375 7.22419 4.57254 7.57583 4.92417C7.92746 5.27581 8.125 5.75272 8.125 6.25C8.125 6.74728 7.92746 7.22419 7.57583 7.57583C7.22419 7.92746 6.74728 8.125 6.25 8.125ZM5 10.625H7.5V26.25H5V10.625Z" fill="white"/>
</g>
<defs>
<filter id="filter0_d_1513_1332" x="-4" y="0" width="38" height="38" filterUnits="userSpaceOnUse" color-interpolation-filters="sRGB">
<feFlood flood-opacity="0" result="BackgroundImageFix"/>
<feColorMatrix in="SourceAlpha" type="matrix" values="0 0 0 0 0 0 0 0 0 0 0 0 0 0 0 0 0 0 127 0" result="hardAlpha"/>
<feOffset dy="4"/>
<feGaussianBlur stdDeviation="2"/>
<feComposite in2="hardAlpha" operator="out"/>
<feColorMatrix type="matrix" values="0 0 0 0 0 0 0 0 0 0 0 0 0 0 0 0 0 0 0.25 0"/>
<feBlend mode="normal" in2="BackgroundImageFix" result="effect1_dropShadow_1513_1332"/>
<feBlend mode="normal" in="SourceGraphic" in2="effect1_dropShadow_1513_1332" result="shape"/>
</filter>
<clipPath id="clip0_1513_1332">
<rect width="30" height="30" fill="white"/>
</clipPath>
</defs>
</svg>
