<svg width="30" height="30" viewBox="0 0 30 30" fill="none" xmlns="http://www.w3.org/2000/svg">
<path d="M9.30327 6.68774C10.1025 6.68774 10.8402 6.74958 11.5164 6.93509C12.1926 7.05877 12.7459 7.30612 13.2378 7.61531C13.7295 7.92449 14.0984 8.35736 14.3442 8.91389C14.5901 9.47043 14.7131 10.1506 14.7131 10.8927C14.7131 11.7584 14.5287 12.5005 14.0984 13.057C13.7295 13.6135 13.1147 14.1082 12.377 14.4792C13.4221 14.7885 14.2213 15.345 14.7131 16.087C15.2049 16.8291 15.5122 17.7566 15.5122 18.8079C15.5122 19.6736 15.3279 20.4156 15.0205 21.034C14.7131 21.6524 14.2212 22.209 13.668 22.58C13.1147 22.951 12.4385 23.2601 11.7008 23.4457C10.9631 23.6312 10.2254 23.7549 9.4877 23.7549H1.25V6.68774H9.30327ZM8.81148 13.6135C9.4877 13.6135 10.041 13.428 10.4713 13.1189C10.9016 12.8096 11.0861 12.2531 11.0861 11.5729C11.0861 11.2019 11.0246 10.8308 10.9016 10.5835C10.7787 10.3362 10.5943 10.1506 10.3484 9.96513C10.1025 9.84146 9.85656 9.71778 9.54917 9.65594C9.2418 9.59411 8.93442 9.59411 8.56557 9.59411H5V13.6135H8.81148ZM8.9959 20.9104C9.36475 20.9104 9.73361 20.8485 10.041 20.7866C10.3484 20.7249 10.6557 20.6011 10.9016 20.4156C11.1475 20.2301 11.332 20.0446 11.5164 19.7355C11.6393 19.4262 11.7623 19.0552 11.7623 18.6224C11.7623 17.7566 11.5164 17.1382 11.0246 16.7054C10.5328 16.3344 9.85656 16.1489 9.05738 16.1489H5V20.9104H8.9959ZM20.8606 20.8485C21.3525 21.3432 22.0901 21.5906 23.0737 21.5906C23.75 21.5906 24.3648 21.405 24.8565 21.0959C25.3484 20.7249 25.6557 20.3539 25.7787 19.9827H28.791C28.2991 21.4669 27.5615 22.5181 26.5779 23.1984C25.5943 23.8167 24.4262 24.1877 23.0122 24.1877C22.0286 24.1877 21.168 24.0022 20.3689 23.693C19.5696 23.3839 18.9549 22.951 18.4016 22.3326C17.8484 21.7761 17.418 21.0959 17.1721 20.292C16.8648 19.4881 16.7418 18.6224 16.7418 17.633C16.7418 16.7054 16.8648 15.8397 17.1721 15.0357C17.4795 14.2319 17.9099 13.5517 18.4631 12.9334C19.0164 12.3768 19.6926 11.8821 20.4304 11.5729C21.2295 11.2637 22.0286 11.0782 23.0122 11.0782C24.0574 11.0782 24.9795 11.2637 25.7787 11.6966C26.5779 12.1294 27.1926 12.6241 27.6844 13.3662C28.1762 14.0464 28.5451 14.8502 28.791 15.716C28.9139 16.5817 28.9754 17.4475 28.9139 18.4369H20C20 19.4262 20.3689 20.3539 20.8606 20.8485ZM24.7336 14.3556C24.3032 13.9227 23.627 13.6754 22.8279 13.6754C22.2746 13.6754 21.8442 13.799 21.4754 13.9846C21.1065 14.1701 20.8606 14.4174 20.6148 14.6647C20.3689 14.9121 20.2459 15.2214 20.1844 15.5305C20.123 15.8397 20.0615 16.087 20.0615 16.3344H25.5943C25.4714 15.4069 25.1639 14.7885 24.7336 14.3556ZM19.3237 7.86266H26.209V9.53227H19.3237V7.86266Z" fill="white"/>
</svg>
