<svg width="34" height="36" viewBox="0 0 34 36" fill="none" xmlns="http://www.w3.org/2000/svg">
<g clip-path="url(#clip0_1513_1329)" filter="url(#filter0_d_1513_1329)">
<path d="M17 11.25C16.0054 11.25 15.0516 11.6451 14.3483 12.3483C13.6451 13.0516 13.25 14.0054 13.25 15C13.25 15.9946 13.6451 16.9484 14.3483 17.6517C15.0516 18.3549 16.0054 18.75 17 18.75C17.9946 18.75 18.9484 18.3549 19.6517 17.6517C20.3549 16.9484 20.75 15.9946 20.75 15C20.75 14.0054 20.3549 13.0516 19.6517 12.3483C18.9484 11.6451 17.9946 11.25 17 11.25ZM17 8.75C18.6576 8.75 20.2473 9.40848 21.4194 10.5806C22.5915 11.7527 23.25 13.3424 23.25 15C23.25 16.6576 22.5915 18.2473 21.4194 19.4194C20.2473 20.5915 18.6576 21.25 17 21.25C15.3424 21.25 13.7527 20.5915 12.5806 19.4194C11.4085 18.2473 10.75 16.6576 10.75 15C10.75 13.3424 11.4085 11.7527 12.5806 10.5806C13.7527 9.40848 15.3424 8.75 17 8.75ZM25.125 8.4375C25.125 8.8519 24.9604 9.24933 24.6674 9.54235C24.3743 9.83538 23.9769 10 23.5625 10C23.1481 10 22.7507 9.83538 22.4576 9.54235C22.1646 9.24933 22 8.8519 22 8.4375C22 8.0231 22.1646 7.62567 22.4576 7.33265C22.7507 7.03962 23.1481 6.875 23.5625 6.875C23.9769 6.875 24.3743 7.03962 24.6674 7.33265C24.9604 7.62567 25.125 8.0231 25.125 8.4375ZM17 5C13.9075 5 13.4025 5.00875 11.9638 5.0725C10.9838 5.11875 10.3262 5.25 9.71625 5.4875C9.17375 5.6975 8.7825 5.94875 8.36625 6.36625C7.97501 6.74425 7.67419 7.20573 7.48625 7.71625C7.24875 8.32875 7.1175 8.985 7.0725 9.96375C7.0075 11.3438 7 11.8263 7 15C7 18.0925 7.00875 18.5975 7.0725 20.0362C7.11875 21.015 7.25 21.6737 7.48625 22.2825C7.69875 22.8263 7.94875 23.2175 8.36375 23.6325C8.785 24.0525 9.17625 24.3037 9.71375 24.5112C10.3313 24.75 10.9888 24.8825 11.9638 24.9275C13.3438 24.9925 13.8263 25 17 25C20.0925 25 20.5975 24.9912 22.0362 24.9275C23.0138 24.8812 23.6725 24.75 24.2825 24.5138C24.8237 24.3025 25.2175 24.0513 25.6325 23.6362C26.0538 23.215 26.305 22.8238 26.5125 22.2863C26.75 21.67 26.8825 21.0112 26.9275 20.0362C26.9925 18.6562 27 18.1737 27 15C27 11.9075 26.9912 11.4025 26.9275 9.96375C26.8812 8.98625 26.75 8.32625 26.5125 7.71625C26.3241 7.20625 26.0238 6.74495 25.6337 6.36625C25.2559 5.97481 24.7944 5.67396 24.2837 5.48625C23.6712 5.24875 23.0138 5.1175 22.0362 5.0725C20.6562 5.0075 20.1737 5 17 5ZM17 2.5C20.3962 2.5 20.82 2.5125 22.1525 2.575C23.4837 2.6375 24.39 2.84625 25.1875 3.15625C26.0125 3.47375 26.7075 3.90375 27.4025 4.5975C28.0381 5.22237 28.5299 5.97824 28.8438 6.8125C29.1525 7.60875 29.3625 8.51625 29.425 9.8475C29.4838 11.18 29.5 11.6038 29.5 15C29.5 18.3962 29.4875 18.82 29.425 20.1525C29.3625 21.4837 29.1525 22.39 28.8438 23.1875C28.5308 24.0222 28.0389 24.7783 27.4025 25.4025C26.7775 26.0379 26.0216 26.5297 25.1875 26.8438C24.3912 27.1525 23.4837 27.3625 22.1525 27.425C20.82 27.4838 20.3962 27.5 17 27.5C13.6038 27.5 13.18 27.4875 11.8475 27.425C10.5162 27.3625 9.61 27.1525 8.8125 26.8438C7.97791 26.5306 7.22191 26.0387 6.5975 25.4025C5.96176 24.7777 5.46991 24.0218 5.15625 23.1875C4.84625 22.3912 4.6375 21.4837 4.575 20.1525C4.51625 18.82 4.5 18.3962 4.5 15C4.5 11.6038 4.5125 11.18 4.575 9.8475C4.6375 8.515 4.84625 7.61 5.15625 6.8125C5.46905 5.97772 5.961 5.22165 6.5975 4.5975C7.22209 3.96154 7.97804 3.46966 8.8125 3.15625C9.61 2.84625 10.515 2.6375 11.8475 2.575C13.18 2.51625 13.6038 2.5 17 2.5Z" fill="white"/>
</g>
<defs>
<filter id="filter0_d_1513_1329" x="-2" y="0" width="38" height="38" filterUnits="userSpaceOnUse" color-interpolation-filters="sRGB">
<feFlood flood-opacity="0" result="BackgroundImageFix"/>
<feColorMatrix in="SourceAlpha" type="matrix" values="0 0 0 0 0 0 0 0 0 0 0 0 0 0 0 0 0 0 127 0" result="hardAlpha"/>
<feOffset dy="4"/>
<feGaussianBlur stdDeviation="2"/>
<feComposite in2="hardAlpha" operator="out"/>
<feColorMatrix type="matrix" values="0 0 0 0 0 0 0 0 0 0 0 0 0 0 0 0 0 0 0.25 0"/>
<feBlend mode="normal" in2="BackgroundImageFix" result="effect1_dropShadow_1513_1329"/>
<feBlend mode="normal" in="SourceGraphic" in2="effect1_dropShadow_1513_1329" result="shape"/>
</filter>
<clipPath id="clip0_1513_1329">
<rect width="30" height="30" fill="white" transform="translate(2)"/>
</clipPath>
</defs>
</svg>
